<svg width="176" height="49" viewBox="0 0 176 49" fill="none" xmlns="http://www.w3.org/2000/svg">
<path d="M52.312 18.36L51.952 19.92C51.4987 19.8667 50.912 19.84 50.192 19.84C47.5254 19.84 46.192 20.72 46.192 22.48C46.192 22.8533 46.7254 23.9467 47.792 25.76C48.8854 27.5733 49.432 28.7867 49.432 29.4C49.432 30.84 48.9387 31.9733 47.952 32.8C46.992 33.6 45.6987 34 44.072 34C41.832 34 40.032 32.76 38.672 30.28L40.192 29.2C40.5654 29.4933 40.9654 29.8533 41.392 30.28C41.8187 30.68 42.1387 30.96 42.352 31.12C42.8587 31.5733 43.4187 31.8 44.032 31.8C44.6454 31.8 45.1787 31.5867 45.632 31.16C46.0854 30.7067 46.312 30.16 46.312 29.52C46.312 28.8533 45.7254 27.6267 44.552 25.84C43.4054 24.0533 42.832 22.8 42.832 22.08C42.832 20.7733 43.3787 19.7733 44.472 19.08C45.592 18.3867 47.0454 18.04 48.832 18.04C50.6454 18.04 51.8054 18.1467 52.312 18.36ZM68.5142 29.6L69.3542 30.28C68.9009 31.4 68.1809 32.3467 67.1942 33.12C66.2342 33.8933 65.3542 34.28 64.5542 34.28C63.7809 34.28 63.1676 34.0133 62.7142 33.48C62.2609 32.92 62.0342 32.2 62.0342 31.32C62.0342 30.44 62.1809 29.3067 62.4742 27.92C61.2209 29.8933 59.8742 31.44 58.4342 32.56C56.9942 33.68 55.7809 34.24 54.7942 34.24C53.3009 34.24 52.5542 33.1733 52.5542 31.04C52.5542 29.2267 53.1676 26.9067 54.3942 24.08C55.6209 21.2533 56.5142 19.6133 57.0742 19.16L58.9942 20C57.9009 21.76 57.0742 23.4933 56.5142 25.2C55.9542 26.9067 55.6742 28.0533 55.6742 28.64C55.6742 29.2 55.8476 29.6533 56.1942 30C56.5676 30.3467 56.9942 30.52 57.4742 30.52C58.5409 30.52 59.8609 29.5467 61.4342 27.6C63.0342 25.6267 64.6609 22.6933 66.3142 18.8L68.3542 19.72C68.3009 19.9333 67.6876 21.48 66.5142 24.36C65.3676 27.24 64.7942 28.9733 64.7942 29.56C64.7942 30.12 64.9142 30.5467 65.1542 30.84C65.4209 31.1333 65.6742 31.28 65.9142 31.28C66.1809 31.28 66.3809 31.2667 66.5142 31.24C66.6476 31.2133 66.7809 31.16 66.9142 31.08C67.0476 31 67.1542 30.9333 67.2342 30.88C67.3409 30.8267 67.4609 30.7333 67.5942 30.6L67.9142 30.32C67.9676 30.24 68.0609 30.12 68.1942 29.96C68.3542 29.7733 68.4609 29.6533 68.5142 29.6ZM81.2914 19.84C81.9581 19.84 82.5047 20.0667 82.9314 20.52C83.3581 20.9733 83.5714 21.56 83.5714 22.28C83.5714 23.72 82.7447 25.24 81.0914 26.84L80.1314 26.08C80.5047 25.2533 80.6914 24.6533 80.6914 24.28C80.6914 23.56 80.2914 23.2 79.4914 23.2C78.6914 23.2 77.9314 23.7067 77.2114 24.72C76.4914 25.7333 75.6381 27.3067 74.6514 29.44C73.6914 31.5467 72.9581 33.04 72.4514 33.92L70.1714 32.92C71.6381 29.5867 72.4781 27.6267 72.6914 27.04C73.4114 24.96 73.7714 22.32 73.7714 19.12L76.0114 18.52C75.9314 20.2533 75.8114 21.6 75.6514 22.56C75.4914 23.4933 75.1047 25.0267 74.4914 27.16C77.1847 22.28 79.4514 19.84 81.2914 19.84ZM92.8702 18.28L91.5902 23.12L96.7902 22.52L95.6302 24.4L91.1502 25C90.8035 26.44 90.2168 28.6133 89.3902 31.52C87.6035 37.8133 86.7102 41.8 86.7102 43.48L84.1502 44.8C84.1502 42.5067 85.1368 38.08 87.1102 31.52C88.1235 28.24 88.7502 26.1333 88.9902 25.2C88.0568 25.44 87.2035 25.56 86.4302 25.56C84.9102 25.56 84.1502 24.96 84.1502 23.76C84.1502 23.0933 84.6568 22.2933 85.6702 21.36C87.1368 20 88.8835 18.8 90.9102 17.76C92.4835 12.4 93.6168 9.04 94.3102 7.68C95.2435 5.84 96.0968 4.66666 96.8702 4.16C98.0168 3.44 99.2035 3.08 100.43 3.08C101.657 3.08 102.523 3.42666 103.03 4.12C103.537 4.81333 103.763 5.62667 103.71 6.56C103.577 9.92 99.9635 13.8267 92.8702 18.28ZM99.2702 6.48C97.7768 6.48 96.6702 7.2 95.9502 8.64C95.3902 9.76 94.8968 11.1067 94.4702 12.68C94.0435 14.2533 93.7368 15.3333 93.5502 15.92C95.0168 15.0133 96.5902 13.7867 98.2702 12.24C99.9502 10.6933 100.817 9.34666 100.87 8.2C100.923 7.05333 100.39 6.48 99.2702 6.48ZM89.5502 23.32L90.4302 19.8C89.4168 20.2267 88.6168 20.6667 88.0302 21.12C87.4702 21.5733 87.1902 21.96 87.1902 22.28C87.1902 22.9733 87.9768 23.32 89.5502 23.32ZM111.023 19.68L112.383 20.76C108.836 25.4267 106.436 29.32 105.183 32.44C104.756 33.48 104.143 34 103.343 34C102.836 34 102.383 33.7333 101.983 33.2C101.61 32.6667 101.356 32.1867 101.223 31.76C101.116 31.3067 100.93 30.3733 100.663 28.96C100.396 27.5467 100.103 26.08 99.783 24.56C99.463 23.0133 99.1963 21.8667 98.983 21.12C98.7963 20.3467 98.663 19.84 98.583 19.6C98.5296 19.36 98.423 19.16 98.263 19C98.103 18.8133 98.0096 18.6933 97.983 18.64L100.583 18.88C101.356 20.7733 101.97 22.8267 102.423 25.04C102.53 25.4933 102.716 26.4133 102.983 27.8C103.25 29.16 103.463 30.2267 103.623 31C105.09 28.1733 106.37 25.88 107.463 24.12C108.583 22.3333 109.77 20.8533 111.023 19.68ZM130.298 29.96L131.218 30.64C130.845 31.44 130.152 32.2 129.138 32.92C128.152 33.64 127.245 34 126.418 34C124.845 34 124.058 33.1733 124.058 31.52C124.058 30.7467 124.258 29.8267 124.658 28.76L123.178 30.28C121.738 31.7467 120.485 32.7333 119.418 33.24C118.378 33.7467 117.352 34 116.338 34C115.325 34 114.552 33.72 114.018 33.16C113.512 32.5733 113.258 31.7733 113.258 30.76C113.258 28.8933 113.978 27.0533 115.418 25.24C116.858 23.4 118.698 21.9067 120.938 20.76C123.178 19.6133 125.418 19.0267 127.658 19L127.738 20.32L126.058 20.68C123.632 21.2133 121.485 22.28 119.618 23.88C117.778 25.48 116.858 27.08 116.858 28.68C116.858 30.2533 117.498 31.04 118.778 31.04C119.978 31.04 121.458 30.2 123.218 28.52C124.978 26.84 126.445 24.8667 127.618 22.6L129.298 23.6C127.645 26.9333 126.818 29.0533 126.818 29.96C126.818 30.3333 126.938 30.6533 127.178 30.92C127.445 31.16 127.698 31.28 127.938 31.28C128.205 31.28 128.378 31.2667 128.458 31.24C128.538 31.2133 128.618 31.1867 128.698 31.16C128.778 31.1067 128.872 31.04 128.978 30.96C129.112 30.88 129.218 30.8 129.298 30.72C129.405 30.64 129.565 30.52 129.778 30.36C129.992 30.2 130.165 30.0667 130.298 29.96ZM147.928 29.6L148.768 30.28C148.315 31.4 147.595 32.3467 146.608 33.12C145.648 33.8933 144.768 34.28 143.968 34.28C143.195 34.28 142.582 34.0133 142.128 33.48C141.675 32.92 141.448 32.2 141.448 31.32C141.448 30.44 141.595 29.3067 141.888 27.92C140.635 29.8933 139.288 31.44 137.848 32.56C136.408 33.68 135.195 34.24 134.208 34.24C132.715 34.24 131.968 33.1733 131.968 31.04C131.968 29.2267 132.582 26.9067 133.808 24.08C135.035 21.2533 135.928 19.6133 136.488 19.16L138.408 20C137.315 21.76 136.488 23.4933 135.928 25.2C135.368 26.9067 135.088 28.0533 135.088 28.64C135.088 29.2 135.262 29.6533 135.608 30C135.982 30.3467 136.408 30.52 136.888 30.52C137.955 30.52 139.275 29.5467 140.848 27.6C142.448 25.6267 144.075 22.6933 145.728 18.8L147.768 19.72C147.715 19.9333 147.102 21.48 145.928 24.36C144.782 27.24 144.208 28.9733 144.208 29.56C144.208 30.12 144.328 30.5467 144.568 30.84C144.835 31.1333 145.088 31.28 145.328 31.28C145.595 31.28 145.795 31.2667 145.928 31.24C146.062 31.2133 146.195 31.16 146.328 31.08C146.462 31 146.568 30.9333 146.648 30.88C146.755 30.8267 146.875 30.7333 147.008 30.6L147.328 30.32C147.382 30.24 147.475 30.12 147.608 29.96C147.768 29.7733 147.875 29.6533 147.928 29.6ZM155.745 30.16L156.585 30.84C155.679 32.2533 154.892 33.28 154.225 33.92C153.585 34.5333 152.865 34.84 152.065 34.84C151.265 34.84 150.612 34.52 150.105 33.88C149.599 33.24 149.345 32.44 149.345 31.48C149.345 29.6133 150.572 25.6 153.025 19.44C155.479 13.2533 157.999 7.81333 160.585 3.12L162.345 4.08C159.732 9.14667 157.372 14.1867 155.265 19.2C153.159 24.1867 152.105 27.7733 152.105 29.96C152.105 31.2133 152.572 31.84 153.505 31.84C154.252 31.84 154.999 31.28 155.745 30.16ZM169.725 29.52L170.605 30.52C169.938 31.56 169.125 32.3733 168.165 32.96C167.232 33.5467 166.285 33.84 165.325 33.84C164.365 33.84 163.605 33.5733 163.045 33.04C162.485 32.48 162.205 31.72 162.205 30.76C162.205 28.52 163.045 25.4267 164.725 21.48C163.365 21.6933 162.005 22.0133 160.645 22.44L160.365 20.88L160.325 20.84C161.658 20.28 163.405 19.8267 165.565 19.48C165.778 19.08 166.258 18.1067 167.005 16.56C168.498 13.4933 169.565 11.5067 170.205 10.6L171.925 11.28C171.658 11.8667 171.192 12.8533 170.525 14.24C169.858 15.6 169.112 17.1467 168.285 18.88C169.485 18.8 170.432 18.76 171.125 18.76C171.818 18.76 172.352 18.8667 172.725 19.08V20.8C172.352 20.72 171.805 20.68 171.085 20.68C170.392 20.68 169.138 20.8 167.325 21.04C165.752 24.56 164.965 27.12 164.965 28.72C164.965 29.3333 165.152 29.84 165.525 30.24C165.925 30.64 166.445 30.84 167.085 30.84C167.752 30.84 168.632 30.4 169.725 29.52Z" fill="#F2F2F2"/>
<circle cx="16.5459" cy="24.5459" r="16.5459" fill="#F2F2F2"/>
<path d="M19.1919 11.478C19.1684 12.0562 19.139 12.6361 19.1096 13.2166C18.8864 13.1943 18.6572 13.0756 18.3869 12.8758C17.9815 12.575 17.5643 12.0997 17.1413 11.6831L16.401 12.4399C16.777 12.8083 17.2177 13.3212 17.7524 13.7231C18.1225 13.9987 18.5808 14.2267 19.0803 14.2649C19.0156 16.4688 19.0568 18.6663 19.4857 20.7992C18.8452 21.6453 18.3341 22.6207 17.958 23.6313C17.8993 23.7899 17.8464 23.9486 17.7876 24.1072C17.0003 23.7547 16.1601 23.1906 15.3433 22.5325C14.5384 20.5348 14.4855 18.5018 15.6371 16.9095C16.2129 16.557 16.495 15.866 16.5772 15.158L15.5255 15.0352C15.4667 15.5839 15.1494 15.9929 15.0025 16.0399C14.9908 16.0458 14.979 16.0458 14.9673 16.0517L14.9614 16.0458C14.9614 16.0517 14.9555 16.0517 14.9555 16.0575C14.8968 16.0693 14.8322 16.0517 14.6911 15.9576C14.5149 15.8366 14.2622 15.5487 13.9919 15.0357L13.0518 15.5246C13.3691 16.1339 13.704 16.557 14.0859 16.8272C14.1741 16.886 14.2622 16.933 14.3503 16.9741C13.6746 18.2727 13.563 19.7416 13.8509 21.2046C13.798 21.1576 13.751 21.1047 13.6981 21.0577C12.2469 19.6182 11.154 18.2256 10.3725 17.5264C10.3196 16.9448 10.2844 16.4747 10.3196 16.0869C10.3725 15.4564 10.537 15.0422 11.0776 14.5175L10.3373 13.7607C9.65569 14.4282 9.33252 15.1803 9.26201 15.9988C9.22089 16.5452 9.26789 17.1563 9.3384 17.8202C8.08688 17.121 6.9094 16.5746 5.43343 16.2044L5.17842 17.2327C6.65322 17.6028 7.78076 18.1434 9.0975 18.9014C9.50292 19.2598 10.8191 20.8462 12.3761 22.3915C13.798 23.8017 15.4785 25.253 17.3587 25.9639C17.1707 27.3564 17.3058 28.7372 17.9404 29.9006C17.5643 30.2943 17.2353 30.7115 16.9474 31.1463C16.7888 31.3872 16.6477 31.6281 16.5126 31.8748C15.2082 31.4224 13.4514 30.3119 12.0001 29.0663C11.9589 29.031 11.9178 28.9899 11.8708 28.9546C11.8884 28.5316 12.0588 28.0321 12.3291 27.5445C12.6699 26.9275 13.1635 26.3458 13.5983 25.9522L12.8873 25.1648C12.3644 25.6407 11.8121 26.2929 11.4066 27.0274C11.2186 27.3682 11.0541 27.7266 10.9483 28.0968C10.5312 27.6855 10.1551 27.2801 9.84958 26.9099C9.30314 26.2401 8.99173 25.6055 8.96823 25.4704C8.53931 23.2023 8.33953 22.4679 6.6162 20.1294L5.10204 21.2457C5.52391 21.8157 5.83297 22.2505 6.06741 22.6089C5.25539 22.697 4.36288 22.4796 3.84758 22.0096L3.13663 22.7969C4.04971 23.6254 5.39935 23.8722 6.60034 23.596C6.82185 24.1483 6.90881 24.7241 7.11739 25.8229C7.13385 25.911 7.155 25.9933 7.17909 26.0814H7.11857C5.94872 26.1284 4.91284 26.763 4.11316 27.6444L4.8958 28.3553C5.7231 27.4446 6.60386 26.9569 7.69674 27.1684C7.89298 27.474 8.12801 27.7736 8.39242 28.0968C9.03286 28.8782 9.85546 29.7067 10.7721 30.4941C11.4125 31.0405 12.0941 31.5693 12.7874 32.0452C11.5418 32.5212 9.69681 32.7797 8.29253 32.5447L8.11626 33.5847C8.79784 33.7022 9.52642 33.7374 10.2491 33.6904C10.1727 33.9666 10.1669 34.2545 10.2197 34.5189C10.3373 35.1123 10.7309 35.6176 11.2597 35.9761L11.8532 35.1065C11.5124 34.8714 11.3067 34.5659 11.2539 34.3074C11.201 34.0488 11.2421 33.8197 11.5359 33.5377C12.3996 33.3731 13.2105 33.1029 13.8685 32.7268C14.4972 33.0852 15.1318 33.3908 15.7546 33.6082C15.0966 35.5236 14.9908 37.4038 14.9497 38.579H16.8299C16.8828 36.9749 17.1002 34.3309 18.5162 32.1862C19.092 31.3166 19.8441 30.5117 20.8958 29.8771C22.2825 30.1474 23.6339 30.447 24.8678 30.876C24.762 31.44 24.4036 31.7279 23.9747 32.2215C23.7514 32.4859 23.5105 32.8091 23.3989 33.238C23.2814 33.6669 23.299 34.1781 23.487 34.7598L24.4976 34.4425C24.3507 33.996 24.3625 33.7257 24.4154 33.5141C24.4741 33.3026 24.5916 33.1264 24.7797 32.9148C25.097 32.5447 25.6493 32.0687 25.8608 31.2696C26.4601 31.534 27.0242 31.8396 27.5412 32.2097L28.1523 31.346C26.5071 30.1709 24.5388 29.5716 22.5117 29.1309C23.8396 28.6726 25.5024 28.4376 27.6176 28.5081C27.9349 29.1838 28.5636 29.7831 29.3333 30.2708L29.9032 29.3777C28.8868 28.7314 28.405 27.9734 28.452 27.4622C28.4813 27.2037 28.6224 26.9393 29.0043 26.6455C29.3921 26.3517 30.0266 26.052 30.9609 25.8229L30.7023 24.7947C29.68 25.0473 28.9161 25.3822 28.3579 25.8053C28.0524 26.0462 27.7998 26.3223 27.6411 26.622C27.3532 26.6161 27.0888 26.6102 26.8244 26.6161C26.0371 26.622 25.2967 26.6749 24.5975 26.763C25.7609 25.3528 26.466 23.7135 26.7186 21.8862L25.6786 21.7393C25.567 22.5031 25.379 23.22 25.097 23.9015C24.7738 23.8663 24.4859 23.7312 24.2391 23.5373C23.8983 23.2611 23.6574 22.8557 23.5869 22.4973L22.5469 22.7088C22.6762 23.3375 23.0405 23.9309 23.5752 24.3599C23.8689 24.5949 24.2332 24.7829 24.6151 24.8828C24.1568 25.6936 23.5516 26.434 22.7996 27.1214C21.4775 27.4681 20.3612 27.991 19.4269 28.6256C19.0333 27.4916 19.1331 25.864 19.7148 24.2893C20.3377 22.6207 21.4717 21.1047 22.6468 20.3703C22.9347 20.4937 23.2579 20.5524 23.5693 20.57C24.2156 20.6053 24.9031 20.4937 25.5494 20.335C26.8479 20.0236 27.9937 19.5183 27.9937 19.5183L27.5706 18.5488C27.5706 18.5488 26.4836 19.0247 25.3026 19.3068C24.715 19.4478 24.104 19.5418 23.628 19.5124C23.158 19.4889 22.8936 19.3655 22.7702 19.1775C22.7232 19.1011 22.6997 18.9542 22.8054 18.6722C22.9112 18.3843 23.1345 18.0259 23.3871 17.691C23.8866 17.027 24.48 16.4688 24.48 16.4688L23.7632 15.6956C23.7632 15.6956 23.111 16.2984 22.541 17.0564C22.2531 17.4383 21.9828 17.8555 21.8183 18.302C21.7654 18.443 21.7243 18.5899 21.7008 18.7427C21.2249 19.0247 20.7783 19.3714 20.3729 19.771C19.9734 17.1563 20.1203 14.3583 20.2436 11.5262L19.1919 11.478Z" fill="#171717"/>
</svg>
