<svg width="34" height="34" viewBox="0 0 34 34" fill="none" xmlns="http://www.w3.org/2000/svg">
<circle cx="16.5459" cy="16.5459" r="16.5459" fill="#171717"/>
<path d="M19.1919 3.47803C19.1684 4.05619 19.139 4.63612 19.1096 5.21664C18.8864 5.19431 18.6572 5.07562 18.3869 4.87585C17.9815 4.57502 17.5643 4.09967 17.1413 3.68309L16.401 4.43987C16.777 4.80828 17.2177 5.32123 17.7524 5.72312C18.1225 5.99869 18.5808 6.22667 19.0803 6.26486C19.0156 8.46882 19.0568 10.6663 19.4857 12.7992C18.8452 13.6453 18.3341 14.6207 17.958 15.6313C17.8993 15.7899 17.8464 15.9486 17.7876 16.1072C17.0003 15.7547 16.1601 15.1906 15.3433 14.5325C14.5384 12.5348 14.4855 10.5018 15.6371 8.9095C16.2129 8.55696 16.495 7.86598 16.5772 7.15796L15.5255 7.03516C15.4667 7.58395 15.1494 7.99289 15.0025 8.0399C14.9908 8.04577 14.979 8.04578 14.9673 8.05165L14.9614 8.04578C14.9614 8.05165 14.9555 8.05165 14.9555 8.05753C14.8968 8.06928 14.8322 8.05165 14.6911 7.95764C14.5149 7.8366 14.2622 7.54869 13.9919 7.03575L13.0518 7.5246C13.3691 8.13391 13.704 8.55696 14.0859 8.82724C14.1741 8.886 14.2622 8.933 14.3503 8.97413C13.6746 10.2727 13.563 11.7416 13.8509 13.2046C13.798 13.1576 13.751 13.1047 13.6981 13.0577C12.2469 11.6182 11.154 10.2256 10.3725 9.52644C10.3196 8.94475 10.2844 8.4747 10.3196 8.0869C10.3725 7.45645 10.537 7.04221 11.0776 6.51751L10.3373 5.76073C9.65569 6.4282 9.33252 7.18029 9.26201 7.99877C9.22089 8.54521 9.26789 9.15628 9.3384 9.82023C8.08688 9.12102 6.9094 8.57459 5.43343 8.20442L5.17842 9.23266C6.65322 9.60283 7.78076 10.1434 9.0975 10.9014C9.50292 11.2598 10.8191 12.8462 12.3761 14.3915C13.798 15.8017 15.4785 17.253 17.3587 17.9639C17.1707 19.3564 17.3058 20.7372 17.9404 21.9006C17.5643 22.2943 17.2353 22.7115 16.9474 23.1463C16.7888 23.3872 16.6477 23.6281 16.5126 23.8748C15.2082 23.4224 13.4514 22.3119 12.0001 21.0663C11.9589 21.031 11.9178 20.9899 11.8708 20.9546C11.8884 20.5316 12.0588 20.0321 12.3291 19.5445C12.6699 18.9275 13.1635 18.3458 13.5983 17.9522L12.8873 17.1648C12.3644 17.6407 11.8121 18.2929 11.4066 19.0274C11.2186 19.3682 11.0541 19.7266 10.9483 20.0968C10.5312 19.6855 10.1551 19.2801 9.84958 18.9099C9.30314 18.2401 8.99173 17.6055 8.96823 17.4704C8.53931 15.2023 8.33953 14.4679 6.6162 12.1294L5.10204 13.2457C5.52391 13.8157 5.83297 14.2505 6.06741 14.6089C5.25539 14.697 4.36288 14.4796 3.84758 14.0096L3.13663 14.7969C4.04971 15.6254 5.39935 15.8722 6.60034 15.596C6.82185 16.1483 6.90881 16.7241 7.11739 17.8229C7.13385 17.911 7.155 17.9933 7.17909 18.0814H7.11857C5.94872 18.1284 4.91284 18.763 4.11316 19.6444L4.8958 20.3553C5.7231 19.4446 6.60386 18.9569 7.69674 19.1684C7.89298 19.474 8.12801 19.7736 8.39242 20.0968C9.03286 20.8782 9.85546 21.7067 10.7721 22.4941C11.4125 23.0405 12.0941 23.5693 12.7874 24.0452C11.5418 24.5212 9.69681 24.7797 8.29253 24.5447L8.11626 25.5847C8.79784 25.7022 9.52642 25.7374 10.2491 25.6904C10.1727 25.9666 10.1669 26.2545 10.2197 26.5189C10.3373 27.1123 10.7309 27.6176 11.2597 27.9761L11.8532 27.1065C11.5124 26.8714 11.3067 26.5659 11.2539 26.3074C11.201 26.0488 11.2421 25.8197 11.5359 25.5377C12.3996 25.3731 13.2105 25.1029 13.8685 24.7268C14.4972 25.0852 15.1318 25.3908 15.7546 25.6082C15.0966 27.5236 14.9908 29.4038 14.9497 30.579H16.8299C16.8828 28.9749 17.1002 26.3309 18.5162 24.1862C19.092 23.3166 19.8441 22.5117 20.8958 21.8771C22.2825 22.1474 23.6339 22.447 24.8678 22.876C24.762 23.44 24.4036 23.7279 23.9747 24.2215C23.7514 24.4859 23.5105 24.8091 23.3989 25.238C23.2814 25.6669 23.299 26.1781 23.487 26.7598L24.4976 26.4425C24.3507 25.996 24.3625 25.7257 24.4154 25.5141C24.4741 25.3026 24.5916 25.1264 24.7797 24.9148C25.097 24.5447 25.6493 24.0687 25.8608 23.2696C26.4601 23.534 27.0242 23.8396 27.5412 24.2097L28.1523 23.346C26.5071 22.1709 24.5388 21.5716 22.5117 21.1309C23.8396 20.6726 25.5024 20.4376 27.6176 20.5081C27.9349 21.1838 28.5636 21.7831 29.3333 22.2708L29.9032 21.3777C28.8868 20.7314 28.405 19.9734 28.452 19.4622C28.4813 19.2037 28.6224 18.9393 29.0043 18.6455C29.3921 18.3517 30.0266 18.052 30.9609 17.8229L30.7023 16.7947C29.68 17.0473 28.9161 17.3822 28.3579 17.8053C28.0524 18.0462 27.7998 18.3223 27.6411 18.622C27.3532 18.6161 27.0888 18.6102 26.8244 18.6161C26.0371 18.622 25.2967 18.6749 24.5975 18.763C25.7609 17.3528 26.466 15.7135 26.7186 13.8862L25.6786 13.7393C25.567 14.5031 25.379 15.22 25.097 15.9015C24.7738 15.8663 24.4859 15.7312 24.2391 15.5373C23.8983 15.2611 23.6574 14.8557 23.5869 14.4973L22.5469 14.7088C22.6762 15.3375 23.0405 15.9309 23.5752 16.3599C23.8689 16.5949 24.2332 16.7829 24.6151 16.8828C24.1568 17.6936 23.5516 18.434 22.7996 19.1214C21.4775 19.4681 20.3612 19.991 19.4269 20.6256C19.0333 19.4916 19.1331 17.864 19.7148 16.2893C20.3377 14.6207 21.4717 13.1047 22.6468 12.3703C22.9347 12.4937 23.2579 12.5524 23.5693 12.57C24.2156 12.6053 24.9031 12.4937 25.5494 12.335C26.8479 12.0236 27.9937 11.5183 27.9937 11.5183L27.5706 10.5488C27.5706 10.5488 26.4836 11.0247 25.3026 11.3068C24.715 11.4478 24.104 11.5418 23.628 11.5124C23.158 11.4889 22.8936 11.3655 22.7702 11.1775C22.7232 11.1011 22.6997 10.9542 22.8054 10.6722C22.9112 10.3843 23.1345 10.0259 23.3871 9.69096C23.8866 9.02701 24.48 8.46882 24.48 8.46882L23.7632 7.69558C23.7632 7.69558 23.111 8.29843 22.541 9.05639C22.2531 9.43831 21.9828 9.85548 21.8183 10.302C21.7654 10.443 21.7243 10.5899 21.7008 10.7427C21.2249 11.0247 20.7783 11.3714 20.3729 11.771C19.9734 9.15628 20.1203 6.35828 20.2436 3.52621L19.1919 3.47803Z" fill="white"/>
</svg>
