<svg width="135" height="42" viewBox="0 0 135 42" fill="none" xmlns="http://www.w3.org/2000/svg">
<path d="M14.312 15.36L13.952 16.92C13.4987 16.8667 12.912 16.84 12.192 16.84C9.52537 16.84 8.19203 17.72 8.19203 19.48C8.19203 19.8533 8.72537 20.9467 9.79203 22.76C10.8854 24.5733 11.432 25.7867 11.432 26.4C11.432 27.84 10.9387 28.9733 9.95203 29.8C8.99203 30.6 7.6987 31 6.07203 31C3.83203 31 2.03203 29.76 0.672031 27.28L2.19203 26.2C2.56536 26.4933 2.96536 26.8533 3.39203 27.28C3.8187 27.68 4.1387 27.96 4.35203 28.12C4.8587 28.5733 5.4187 28.8 6.03203 28.8C6.64537 28.8 7.1787 28.5867 7.63203 28.16C8.08536 27.7067 8.31203 27.16 8.31203 26.52C8.31203 25.8533 7.72536 24.6267 6.55203 22.84C5.40536 21.0533 4.83203 19.8 4.83203 19.08C4.83203 17.7733 5.3787 16.7733 6.47203 16.08C7.59203 15.3867 9.04536 15.04 10.832 15.04C12.6454 15.04 13.8054 15.1467 14.312 15.36ZM30.5142 26.6L31.3542 27.28C30.9009 28.4 30.1809 29.3467 29.1942 30.12C28.2342 30.8933 27.3542 31.28 26.5542 31.28C25.7809 31.28 25.1676 31.0133 24.7142 30.48C24.2609 29.92 24.0342 29.2 24.0342 28.32C24.0342 27.44 24.1809 26.3067 24.4742 24.92C23.2209 26.8933 21.8742 28.44 20.4342 29.56C18.9942 30.68 17.7809 31.24 16.7942 31.24C15.3009 31.24 14.5542 30.1733 14.5542 28.04C14.5542 26.2267 15.1676 23.9067 16.3942 21.08C17.6209 18.2533 18.5142 16.6133 19.0742 16.16L20.9942 17C19.9009 18.76 19.0742 20.4933 18.5142 22.2C17.9542 23.9067 17.6742 25.0533 17.6742 25.64C17.6742 26.2 17.8476 26.6533 18.1942 27C18.5676 27.3467 18.9942 27.52 19.4742 27.52C20.5409 27.52 21.8609 26.5467 23.4342 24.6C25.0342 22.6267 26.6609 19.6933 28.3142 15.8L30.3542 16.72C30.3009 16.9333 29.6876 18.48 28.5142 21.36C27.3676 24.24 26.7942 25.9733 26.7942 26.56C26.7942 27.12 26.9142 27.5467 27.1542 27.84C27.4209 28.1333 27.6742 28.28 27.9142 28.28C28.1809 28.28 28.3809 28.2667 28.5142 28.24C28.6476 28.2133 28.7809 28.16 28.9142 28.08C29.0476 28 29.1542 27.9333 29.2342 27.88C29.3409 27.8267 29.4609 27.7333 29.5942 27.6L29.9142 27.32C29.9676 27.24 30.0609 27.12 30.1942 26.96C30.3542 26.7733 30.4609 26.6533 30.5142 26.6ZM43.2914 16.84C43.9581 16.84 44.5047 17.0667 44.9314 17.52C45.3581 17.9733 45.5714 18.56 45.5714 19.28C45.5714 20.72 44.7447 22.24 43.0914 23.84L42.1314 23.08C42.5047 22.2533 42.6914 21.6533 42.6914 21.28C42.6914 20.56 42.2914 20.2 41.4914 20.2C40.6914 20.2 39.9314 20.7067 39.2114 21.72C38.4914 22.7333 37.6381 24.3067 36.6514 26.44C35.6914 28.5467 34.9581 30.04 34.4514 30.92L32.1714 29.92C33.6381 26.5867 34.4781 24.6267 34.6914 24.04C35.4114 21.96 35.7714 19.32 35.7714 16.12L38.0114 15.52C37.9314 17.2533 37.8114 18.6 37.6514 19.56C37.4914 20.4933 37.1047 22.0267 36.4914 24.16C39.1847 19.28 41.4514 16.84 43.2914 16.84ZM54.8702 15.28L53.5902 20.12L58.7902 19.52L57.6302 21.4L53.1502 22C52.8035 23.44 52.2168 25.6133 51.3902 28.52C49.6035 34.8133 48.7102 38.8 48.7102 40.48L46.1502 41.8C46.1502 39.5067 47.1368 35.08 49.1102 28.52C50.1235 25.24 50.7502 23.1333 50.9902 22.2C50.0568 22.44 49.2035 22.56 48.4302 22.56C46.9102 22.56 46.1502 21.96 46.1502 20.76C46.1502 20.0933 46.6568 19.2933 47.6702 18.36C49.1368 17 50.8835 15.8 52.9102 14.76C54.4835 9.4 55.6168 6.04 56.3102 4.68C57.2435 2.84 58.0968 1.66666 58.8702 1.16C60.0168 0.439998 61.2035 0.0799975 62.4302 0.0799975C63.6568 0.0799975 64.5235 0.426665 65.0302 1.12C65.5368 1.81333 65.7635 2.62667 65.7102 3.56C65.5768 6.92 61.9635 10.8267 54.8702 15.28ZM61.2702 3.48C59.7768 3.48 58.6702 4.2 57.9502 5.64C57.3902 6.76 56.8968 8.10667 56.4702 9.68C56.0435 11.2533 55.7368 12.3333 55.5502 12.92C57.0168 12.0133 58.5902 10.7867 60.2702 9.24C61.9502 7.69333 62.8168 6.34666 62.8702 5.2C62.9235 4.05333 62.3902 3.48 61.2702 3.48ZM51.5502 20.32L52.4302 16.8C51.4168 17.2267 50.6168 17.6667 50.0302 18.12C49.4702 18.5733 49.1902 18.96 49.1902 19.28C49.1902 19.9733 49.9768 20.32 51.5502 20.32ZM73.023 16.68L74.383 17.76C70.8363 22.4267 68.4363 26.32 67.183 29.44C66.7563 30.48 66.143 31 65.343 31C64.8363 31 64.383 30.7333 63.983 30.2C63.6096 29.6667 63.3563 29.1867 63.223 28.76C63.1163 28.3067 62.9296 27.3733 62.663 25.96C62.3963 24.5467 62.103 23.08 61.783 21.56C61.463 20.0133 61.1963 18.8667 60.983 18.12C60.7963 17.3467 60.663 16.84 60.583 16.6C60.5296 16.36 60.423 16.16 60.263 16C60.103 15.8133 60.0096 15.6933 59.983 15.64L62.583 15.88C63.3563 17.7733 63.9696 19.8267 64.423 22.04C64.5296 22.4933 64.7163 23.4133 64.983 24.8C65.2496 26.16 65.463 27.2267 65.623 28C67.0896 25.1733 68.3696 22.88 69.463 21.12C70.583 19.3333 71.7696 17.8533 73.023 16.68ZM92.2983 26.96L93.2183 27.64C92.8449 28.44 92.1516 29.2 91.1383 29.92C90.1516 30.64 89.2449 31 88.4183 31C86.8449 31 86.0583 30.1733 86.0583 28.52C86.0583 27.7467 86.2583 26.8267 86.6583 25.76L85.1783 27.28C83.7383 28.7467 82.4849 29.7333 81.4183 30.24C80.3783 30.7467 79.3516 31 78.3383 31C77.3249 31 76.5516 30.72 76.0183 30.16C75.5116 29.5733 75.2583 28.7733 75.2583 27.76C75.2583 25.8933 75.9783 24.0533 77.4183 22.24C78.8583 20.4 80.6983 18.9067 82.9383 17.76C85.1783 16.6133 87.4183 16.0267 89.6583 16L89.7383 17.32L88.0583 17.68C85.6316 18.2133 83.4849 19.28 81.6183 20.88C79.7783 22.48 78.8583 24.08 78.8583 25.68C78.8583 27.2533 79.4983 28.04 80.7783 28.04C81.9783 28.04 83.4583 27.2 85.2183 25.52C86.9783 23.84 88.4449 21.8667 89.6183 19.6L91.2983 20.6C89.6449 23.9333 88.8183 26.0533 88.8183 26.96C88.8183 27.3333 88.9383 27.6533 89.1783 27.92C89.4449 28.16 89.6983 28.28 89.9383 28.28C90.2049 28.28 90.3783 28.2667 90.4583 28.24C90.5383 28.2133 90.6183 28.1867 90.6983 28.16C90.7783 28.1067 90.8716 28.04 90.9783 27.96C91.1116 27.88 91.2183 27.8 91.2983 27.72C91.4049 27.64 91.5649 27.52 91.7783 27.36C91.9916 27.2 92.1649 27.0667 92.2983 26.96ZM109.928 26.6L110.768 27.28C110.315 28.4 109.595 29.3467 108.608 30.12C107.648 30.8933 106.768 31.28 105.968 31.28C105.195 31.28 104.582 31.0133 104.128 30.48C103.675 29.92 103.448 29.2 103.448 28.32C103.448 27.44 103.595 26.3067 103.888 24.92C102.635 26.8933 101.288 28.44 99.8483 29.56C98.4083 30.68 97.1949 31.24 96.2083 31.24C94.7149 31.24 93.9683 30.1733 93.9683 28.04C93.9683 26.2267 94.5816 23.9067 95.8083 21.08C97.0349 18.2533 97.9283 16.6133 98.4883 16.16L100.408 17C99.3149 18.76 98.4883 20.4933 97.9283 22.2C97.3683 23.9067 97.0883 25.0533 97.0883 25.64C97.0883 26.2 97.2616 26.6533 97.6083 27C97.9816 27.3467 98.4083 27.52 98.8883 27.52C99.9549 27.52 101.275 26.5467 102.848 24.6C104.448 22.6267 106.075 19.6933 107.728 15.8L109.768 16.72C109.715 16.9333 109.102 18.48 107.928 21.36C106.782 24.24 106.208 25.9733 106.208 26.56C106.208 27.12 106.328 27.5467 106.568 27.84C106.835 28.1333 107.088 28.28 107.328 28.28C107.595 28.28 107.795 28.2667 107.928 28.24C108.062 28.2133 108.195 28.16 108.328 28.08C108.462 28 108.568 27.9333 108.648 27.88C108.755 27.8267 108.875 27.7333 109.008 27.6L109.328 27.32C109.382 27.24 109.475 27.12 109.608 26.96C109.768 26.7733 109.875 26.6533 109.928 26.6ZM117.745 27.16L118.585 27.84C117.679 29.2533 116.892 30.28 116.225 30.92C115.585 31.5333 114.865 31.84 114.065 31.84C113.265 31.84 112.612 31.52 112.105 30.88C111.599 30.24 111.345 29.44 111.345 28.48C111.345 26.6133 112.572 22.6 115.025 16.44C117.479 10.2533 119.999 4.81333 122.585 0.119999L124.345 1.08C121.732 6.14667 119.372 11.1867 117.265 16.2C115.159 21.1867 114.105 24.7733 114.105 26.96C114.105 28.2133 114.572 28.84 115.505 28.84C116.252 28.84 116.999 28.28 117.745 27.16ZM131.725 26.52L132.605 27.52C131.938 28.56 131.125 29.3733 130.165 29.96C129.232 30.5467 128.285 30.84 127.325 30.84C126.365 30.84 125.605 30.5733 125.045 30.04C124.485 29.48 124.205 28.72 124.205 27.76C124.205 25.52 125.045 22.4267 126.725 18.48C125.365 18.6933 124.005 19.0133 122.645 19.44L122.365 17.88L122.325 17.84C123.658 17.28 125.405 16.8267 127.565 16.48C127.778 16.08 128.258 15.1067 129.005 13.56C130.498 10.4933 131.565 8.50667 132.205 7.6L133.925 8.28C133.658 8.86667 133.192 9.85333 132.525 11.24C131.858 12.6 131.112 14.1467 130.285 15.88C131.485 15.8 132.432 15.76 133.125 15.76C133.818 15.76 134.352 15.8667 134.725 16.08V17.8C134.352 17.72 133.805 17.68 133.085 17.68C132.392 17.68 131.138 17.8 129.325 18.04C127.752 21.56 126.965 24.12 126.965 25.72C126.965 26.3333 127.152 26.84 127.525 27.24C127.925 27.64 128.445 27.84 129.085 27.84C129.752 27.84 130.632 27.4 131.725 26.52Z" fill="#171717"/>
</svg>
